PathFileType	4	(X/Y/Z)	C:\Users\WrightLab\Desktop\Jo\P5V212.trc
DataRate	CameraRate	NumFrames	NumMarkers	Units	OrigDataRate	OrigDataStartFrame	OrigNumFrames
100.00	100.00	       16	19	mm	100.00	235	       469
Frame#	Time	Headset_Front			Headset_Back			Headset_Left			Headset_Right			Left_Shoulder			Right_Shoulder			Sternum			C7			Left Elbow			Right Elbow			Left Wrist			Right Wrist			Left ASIS			Right ASIS			S2			Left Knee			Right Knee			Left Ankle			Right Ankle			
		X1	Y1	Z1	X2	Y2	Z2	X3	Y3	Z3	X4	Y4	Z4	X5	Y5	Z5	X6	Y6	Z6	X7	Y7	Z7	X8	Y8	Z8	X9	Y9	Z9	X10	Y10	Z10	X11	Y11	Z11	X12	Y12	Z12	X13	Y13	Z13	X14	Y14	Z14	X15	Y15	Z15	X16	Y16	Z16	X17	Y17	Z17	X18	Y18	Z18	X19	Y19	Z19	

235	2.340										-543.51910	1568.89233	-470.88864	-218.39255	1498.74915	-693.22241	-603.23480	1438.80078	-575.49194	-394.68512	1302.14294	-568.28204	-462.87961	1511.82874	-755.99384	-125.09335	1210.65515	-715.28278	-718.09698	1202.22363	-474.02271	-140.68564	977.81964	-615.47101	-684.17749	1109.92590	-247.41837	-242.51994	920.17169	-593.57672	-523.73663	926.60577	-524.62805	-418.44885	965.50592	-834.86920	-204.93230	506.24030	-516.43140	-580.78223	493.50485	-588.00952	-237.35454	221.21959	-837.88251	-513.27924	79.42690	-638.46088	
236	2.350										-544.24213	1568.48706	-465.49380	-219.48409	1499.80017	-689.05627	-602.84259	1438.84973	-570.00940	-394.36420	1302.49756	-562.56781	-463.95728	1512.33716	-750.95129	-125.56848	1211.11902	-711.66907	-718.50720	1203.46313	-465.98102	-141.31564	978.10864	-611.02673	-685.72125	1111.70752	-239.37430	-243.01927	921.17358	-589.07556	-522.92267	927.89935	-517.08923	-418.13702	965.77148	-830.59863	-203.66811	509.72278	-509.76889	-582.56104	493.79929	-585.53693	-236.35417	217.20946	-821.01300	-513.23071	79.41377	-638.44543	
237	2.360										-544.81091	1568.38757	-460.13095	-219.77519	1500.24756	-685.06421	-603.52844	1439.37012	-564.09851	-394.53506	1303.06738	-556.53430	-464.82874	1513.05188	-745.56793	-125.66503	1212.06616	-707.71893	-718.68005	1205.09155	-459.39569	-141.66670	978.68451	-606.45007	-685.82477	1113.07690	-231.74847	-243.71298	921.92902	-584.83746	-523.18359	927.13300	-514.01440	-417.68631	966.06903	-826.18976	-204.12593	511.50595	-503.79749	-582.78693	493.31213	-582.02002	-235.99947	213.07172	-804.80811	-512.99408	79.57056	-638.56824	
238	2.370										-545.32025	1568.19214	-454.18463	-220.70349	1500.22876	-679.53259	-603.98694	1439.62207	-558.40314	-395.92123	1303.04272	-554.16589	-465.75806	1513.12354	-740.09937	-125.64053	1213.12134	-703.10333	-720.18158	1206.61084	-452.46136	-140.33774	979.35138	-602.69409	-687.19464	1115.01575	-223.65361	-243.85049	921.80322	-579.88641	-523.68793	927.18872	-514.85889	-416.94412	966.27032	-821.06238	-205.76270	511.98074	-498.70941	-583.11945	492.67740	-578.80975	-235.33891	207.69080	-787.50293	-512.69757	79.85228	-638.29889	
239	2.380										-545.83215	1568.06140	-449.39987	-221.65433	1500.68762	-674.74719	-603.00616	1439.28784	-552.00000	-396.96408	1302.44678	-549.94531	-466.59244	1513.53894	-735.28479	-126.26274	1212.69421	-699.30054	-721.84137	1208.30566	-444.20569	-140.69455	979.80469	-598.18707	-687.35492	1116.67627	-216.20540	-244.65849	921.50812	-575.36957	-522.90936	927.61584	-508.05301	-416.17545	965.84216	-817.22003	-205.67656	513.53003	-493.05865	-581.46143	492.19986	-574.91461	-234.09677	202.04732	-769.78235	-512.64917	79.82730	-638.28033	
240	2.390										-546.36401	1567.79749	-444.34692	-222.13052	1501.05762	-669.79181	-603.33325	1439.61401	-546.43915	-396.34671	1302.40051	-545.40997	-467.33832	1513.68396	-729.41956	-126.74819	1213.52722	-695.26154	-721.59735	1208.92407	-437.18353	-140.16647	980.81171	-593.79657	-688.36700	1117.10205	-208.29755	-246.15565	922.29688	-571.19360	-523.02618	927.42230	-505.70090	-415.39044	966.23987	-812.81494	-207.19313	513.69604	-487.36621	-581.34760	491.42789	-570.84375	-232.81761	196.43454	-750.82465	-512.57910	79.79531	-638.25464	
241	2.400										-546.69812	1567.74475	-438.88257	-222.67421	1501.01624	-664.57513	-604.40930	1439.92786	-541.35394	-397.01251	1303.24158	-540.51788	-467.86548	1513.92065	-723.66632	-127.82616	1213.61633	-690.30957	-721.26422	1209.97986	-428.87476	-139.87505	980.77765	-590.45673	-689.06830	1118.41479	-201.00404	-247.45964	922.21173	-567.03296	-522.77246	927.89203	-500.88181	-414.91052	966.48792	-808.10089	-208.95686	513.72424	-482.61517	-580.34662	490.44464	-567.96857	-231.70323	189.73114	-733.18701	-512.17322	80.31647	-637.70422	
242	2.410										-547.04865	1567.46423	-433.50305	-222.76152	1500.76733	-658.96277	-603.54694	1440.41138	-535.07501	-397.59689	1303.07861	-533.20154	-468.24908	1514.38770	-718.17194	-127.36150	1213.73718	-685.84900	-720.83484	1211.54468	-423.06842	-140.72459	980.47449	-586.67072	-690.19580	1120.25537	-193.24057	-247.73132	921.83728	-562.57208	-522.96307	927.58417	-497.28732	-414.14929	966.51080	-803.84735	-211.70236	512.69763	-477.62091	-578.57965	490.04968	-563.66583	-231.26422	183.82956	-714.22241	-512.09454	80.51668	-637.28546	
243	2.420										-547.28333	1567.53296	-427.82397	-222.70316	1500.87097	-654.44019	-603.57751	1440.62109	-529.73395	-398.02066	1302.49097	-529.66901	-468.77924	1514.43909	-712.85571	-127.44518	1214.72400	-683.15515	-720.93817	1212.75940	-417.04611	-139.75087	980.28687	-582.65686	-690.68994	1121.56116	-185.48849	-249.17236	921.61371	-558.24969	-523.73456	927.76947	-493.72531	-413.68323	966.84796	-799.15210	-213.01547	513.22748	-472.20389	-577.97150	489.53925	-559.41626	-229.13379	177.11684	-695.46539	-512.07739	80.50703	-637.27869	
244	2.430										-547.58124	1567.24438	-422.45450	-223.13573	1500.72974	-648.98492	-603.76837	1440.78711	-524.63495	-396.96555	1303.08020	-523.82281	-469.19299	1514.60742	-707.66821	-127.33236	1214.77478	-679.03632	-720.57275	1213.05286	-408.28537	-139.01555	980.33313	-578.87701	-691.42566	1122.98035	-178.46596	-250.21280	921.86108	-554.13098	-523.93176	927.76672	-490.53195	-412.90518	966.90112	-795.19934	-215.80385	513.80981	-467.08499	-576.32318	488.85281	-555.72443	-228.11203	169.46867	-675.81598	-512.04767	80.50247	-637.27014	
245	2.440										-548.52863	1566.72888	-416.41751	-223.38925	1501.45508	-644.87933	-604.42963	1441.19763	-519.26709	-396.96384	1303.00415	-517.00946	-469.52396	1514.63257	-702.23065	-127.19480	1215.05420	-674.58521	-720.55585	1213.96704	-401.96225	-138.28387	980.72626	-575.56781	-692.71692	1123.75317	-171.75735	-250.28798	921.89459	-549.73987	-524.46997	927.82422	-486.26639	-412.19232	967.45215	-791.17786	-217.72614	514.86444	-460.82190	-574.53461	488.08786	-551.57263	-226.26176	163.16273	-655.40717	-511.99936	80.48269	-637.25293	
246	2.450										-548.68036	1566.74951	-411.02469	-223.58365	1501.09058	-639.13794	-603.04480	1441.08215	-513.18677	-397.22443	1302.20776	-513.91028	-322.25549	1607.42883	-443.32742	-127.40375	1214.67871	-669.12280	-720.83618	1214.97864	-395.70245	-137.89868	980.56903	-572.01843	-693.67273	1124.81873	-164.59973	-251.05685	921.61163	-545.41211	-524.82129	928.23883	-481.89108	-411.66431	967.49225	-786.46326	-218.80177	517.40375	-454.90704	-572.42444	487.29684	-547.34698	-224.95468	156.68057	-635.25006	-511.94031	80.66116	-636.77502	
247	2.460										-548.03888	1566.10339	-405.58862	-223.67815	1501.43652	-633.86676	-602.73029	1440.66895	-507.36383	-398.68204	1301.77600	-508.76581	-469.72614	1515.14429	-691.28412	-127.22577	1214.72961	-664.80615	-720.09991	1214.92114	-387.95541	-137.96523	980.44080	-567.49683	-694.26276	1125.70972	-156.92734	-251.33539	920.82257	-541.33722	-525.81158	928.33618	-477.32224	-410.97195	967.44019	-782.31372	-219.60959	519.72906	-448.55652	-571.45288	487.04156	-543.46167	-223.24591	149.57291	-615.26465	-511.90405	80.63493	-636.75916	
248	2.470										-548.92078	1565.26160	-399.31708	-223.64642	1501.15588	-627.61426	-601.78802	1440.60010	-501.62927	-398.50378	1302.50745	-504.21161	-469.63998	1515.23035	-685.41748	-128.20003	1215.10046	-661.47784	-720.17035	1216.23230	-381.91132	-136.79295	980.11694	-563.45227	-694.93280	1127.07251	-150.77562	-252.81560	920.97052	-537.37567	-525.76056	928.03857	-472.63000	-409.89893	967.34857	-777.86621	-220.41006	521.00262	-442.55933	-569.69318	486.71060	-539.35022	-221.87479	142.98602	-594.00385	-511.82837	80.79857	-636.33417	
249	2.480										-548.89325	1565.30090	-394.14584	-223.44508	1501.14722	-622.34918	-601.13763	1440.93457	-495.76581	-398.41956	1301.82922	-499.47702	-322.30060	1606.11511	-425.15863	-127.20656	1215.07617	-655.45026	-720.13629	1216.71375	-375.82822	-135.34883	979.43280	-560.20410	-697.35425	1129.37866	-145.11957	-252.56250	920.58356	-532.28412	-525.65894	927.68634	-467.35941	-409.26895	967.85736	-773.88934	-221.36305	521.74921	-436.52905	-568.25647	486.32129	-534.77905	-219.42798	136.83005	-572.85376	-511.80374	80.78056	-636.32330	
250	2.490										-548.74603	1564.93286	-388.23877	-223.30251	1501.59033	-618.18689	-602.82733	1441.65430	-490.69702	-397.38379	1301.81445	-492.64606	-469.60187	1515.01453	-674.45380	-126.88750	1215.77319	-652.23145	-719.88788	1217.86157	-370.11716	-134.60782	979.40961	-557.16241	-695.71014	1128.03650	-137.30525	-251.16309	921.07623	-527.72650	-524.71161	926.84784	-461.56503	-408.55142	967.95966	-769.55084	-221.58713	521.49811	-431.19769	-567.13751	485.68234	-531.26099	-218.38806	131.27415	-552.47455	-511.82635	80.84291	-635.85767	
